<svg version="1.1" id="Layer_1" xmlns="http://www.w3.org/2000/svg" xmlns:xlink="http://www.w3.org/1999/xlink" x="0px" y="0px"
	 width="100%" viewBox="0 0 200 200" enable-background="new 0 0 200 200" xml:space="preserve">
<path fill="#000000" opacity="1.000000" stroke="none" 
	d="
M120.000000,201.000000 
	C80.024696,201.000000 40.549400,201.000000 1.037050,201.000000 
	C1.037050,134.399734 1.037050,67.799454 1.037050,1.099581 
	C67.558464,1.099581 134.117126,1.099581 200.837891,1.099581 
	C200.837891,67.666351 200.837891,134.333145 200.837891,201.000000 
	C174.133072,201.000000 147.316528,201.000000 120.000000,201.000000 
M102.301315,109.673027 
	C114.944771,102.412270 127.525497,95.038155 140.281097,87.980080 
	C143.053177,86.446198 143.997696,84.732513 143.963898,81.739189 
	C143.845535,71.260780 143.111618,60.699051 144.150223,50.322987 
	C145.208527,39.749809 142.010223,32.857964 131.879349,29.449015 
	C128.948700,28.462873 127.924011,26.516296 127.932961,23.410702 
	C127.950623,17.280327 126.058594,15.409451 119.327957,14.200972 
	C119.086258,16.437010 118.845352,18.665775 118.551178,21.387266 
	C112.689186,18.354031 107.304214,15.567619 101.453217,12.344245 
	C100.984978,12.386204 100.432991,12.280411 100.060600,12.491479 
	C86.848122,19.980200 73.602585,27.414177 60.528683,35.138493 
	C59.164043,35.944748 58.148930,38.485096 58.124718,40.236809 
	C57.931686,54.204590 58.113304,68.177414 57.939102,82.145699 
	C57.902519,85.079041 58.965397,86.542137 61.408501,87.889290 
	C69.271851,92.225182 76.944168,96.907440 84.806084,101.246040 
	C90.304878,104.280540 95.993408,106.971214 102.301315,109.673027 
M106.239288,118.006073 
	C102.906441,118.011047 99.570724,118.103691 96.241623,117.994400 
	C93.365898,117.899979 91.943466,118.910294 91.987679,122.006981 
	C92.097115,129.670929 92.123169,137.339355 91.978966,145.002167 
	C91.911667,148.578613 93.872826,149.076019 96.736732,149.017319 
	C99.535088,148.959946 102.191391,149.142334 102.029732,145.038269 
	C101.942268,142.817886 102.398582,140.576111 102.609589,138.343979 
	C103.109863,138.337173 103.610138,138.330368 104.110420,138.323563 
	C105.566795,141.585739 106.200882,146.010025 108.709503,147.785065 
	C111.246773,149.580383 115.639999,148.752686 120.219368,149.163651 
	C118.867615,146.071625 118.168015,144.410889 117.419815,142.772339 
	C115.796280,139.216812 114.893028,136.263306 118.362358,132.631714 
	C122.141388,128.675949 119.566345,121.121025 114.471916,119.394241 
	C112.146706,118.606087 109.605888,118.453979 106.239288,118.006073 
M84.886597,132.666199 
	C83.745033,129.444122 83.263428,125.736458 81.324417,123.101120 
	C77.297852,117.628532 68.336411,116.267296 62.265163,119.457436 
	C56.474995,122.499893 53.529919,131.630447 55.626518,139.271042 
	C57.391018,145.701340 61.764099,148.961349 68.025475,149.891617 
	C74.294525,150.822983 80.073189,147.883377 82.787506,142.112991 
	C84.021889,139.488815 84.239944,136.386566 84.886597,132.666199 
M161.086334,118.123253 
	C159.944214,119.933586 158.394180,121.606773 157.731339,123.578247 
	C155.007050,131.680771 152.552597,139.874008 149.820190,148.604950 
	C153.647202,148.326736 156.946548,150.975632 159.198425,146.464554 
	C159.959137,144.940643 162.223328,143.275757 163.777908,143.297318 
	C165.250595,143.317780 167.098907,145.204575 168.070221,146.725235 
	C170.503708,150.535034 174.004623,148.691833 177.056732,148.569885 
	C177.423233,148.555222 178.274597,145.028381 177.840714,143.414566 
	C176.207825,137.341125 174.155701,131.379364 172.223831,125.387634 
	C169.824158,117.945030 169.808395,117.950111 161.086334,118.123253 
M34.074020,138.511581 
	C36.210464,138.326172 38.357838,138.222382 40.481068,137.938232 
	C44.816456,137.358002 48.017250,135.135773 48.870842,130.724197 
	C50.013992,124.816116 47.971752,120.296951 42.852848,119.289391 
	C37.246246,118.185822 31.371250,118.298897 25.611822,118.278679 
	C24.757942,118.275688 23.188150,120.432884 23.153250,121.625893 
	C22.925188,129.422409 23.099684,137.229630 22.988728,145.031158 
	C22.944712,148.126007 24.407244,148.880890 27.234556,149.058929 
	C31.392313,149.320770 33.599148,148.166245 33.051926,143.570663 
	C32.880833,142.133820 33.315971,140.624771 34.074020,138.511581 
M147.779068,119.832092 
	C147.214645,119.295097 146.661407,118.305031 146.084106,118.290802 
	C139.936264,118.139267 133.778610,118.000916 127.640587,118.260178 
	C126.748779,118.297852 125.152000,120.546272 125.289001,121.586288 
	C125.491798,123.125786 126.881783,125.672333 127.893509,125.734924 
	C131.717545,125.971558 132.083420,128.089767 132.020660,131.073914 
	C131.922745,135.730576 132.133667,140.395065 131.983383,145.048798 
	C131.867050,148.652222 133.947174,149.052032 136.770706,149.020813 
	C139.616760,148.989319 142.142639,149.028275 142.009399,144.989304 
	C141.844940,140.003555 141.848801,134.999664 142.109879,130.020905 
	C142.179504,128.693024 143.361176,126.386360 144.191727,126.312088 
	C148.124207,125.960426 148.164291,123.523872 147.779068,119.832092 
M157.765137,190.109756 
	C158.585297,190.186020 159.683319,189.947479 160.182144,190.387787 
	C164.597305,194.284851 169.981583,192.358917 174.909393,192.720474 
	C176.139679,192.810730 178.431717,190.546982 178.629898,189.139114 
	C178.823593,187.763168 177.213745,185.833817 175.936096,184.638641 
	C174.771774,183.549500 172.991074,183.119263 171.482056,182.398605 
	C171.665970,181.984467 171.849869,181.570343 172.033783,181.156204 
	C173.113480,181.589600 174.162567,182.182373 175.284119,182.397690 
	C175.977600,182.530807 176.901733,182.259506 177.490067,181.842285 
	C177.839478,181.594498 177.932251,180.234100 177.809875,180.184174 
	C175.907074,179.407852 173.907379,178.145737 172.018631,178.276367 
	C170.368332,178.390503 167.990219,179.801804 167.480820,181.202637 
	C166.990723,182.550430 168.058365,185.019897 169.224564,186.260437 
	C170.418777,187.530792 172.563126,187.907928 174.291595,188.676025 
	C174.206680,189.027756 174.121765,189.379486 174.036850,189.731232 
	C171.259659,189.359329 168.482483,188.987427 165.264435,188.556488 
	C164.248428,186.086197 163.120407,183.163239 161.848480,180.304306 
	C160.690506,177.701523 158.118271,177.009140 156.857819,179.252518 
	C154.625214,183.226120 153.417542,187.775589 151.780991,192.084091 
	C152.247849,192.326904 152.714722,192.569717 153.181580,192.812531 
	C154.465118,191.949112 155.748642,191.085678 157.765137,190.109756 
M50.080650,180.066589 
	C48.116131,177.006866 45.363411,176.783173 44.380672,180.114899 
	C43.391720,183.467651 44.078346,187.346878 44.267319,190.983139 
	C44.298809,191.589157 45.467522,192.373444 46.247837,192.597183 
	C46.606319,192.699982 47.555115,191.735931 47.776882,191.096375 
	C48.129581,190.079224 48.097710,188.928711 48.264076,187.536957 
	C49.685665,189.603455 50.879753,191.339249 52.557785,193.778519 
	C54.062767,190.702805 55.083748,188.616241 55.912380,186.922775 
	C57.053070,188.906570 58.133324,190.785278 59.213585,192.663971 
	C59.808640,190.800171 60.988674,188.897079 60.866673,187.081467 
	C60.665161,184.082565 60.435066,179.244141 58.780605,178.535736 
	C54.144581,176.550766 54.923954,182.541718 52.358231,184.524872 
	C51.695549,183.264389 51.031212,182.000763 50.080650,180.066589 
M89.973923,184.198288 
	C90.196991,183.575958 90.752892,182.845261 90.591080,182.348221 
	C89.145012,177.906189 85.411201,178.112610 81.726257,177.988556 
	C77.965546,177.861984 77.924210,180.257233 77.977486,182.900085 
	C78.024216,185.218658 77.870033,187.553986 78.109947,189.849991 
	C78.212303,190.829529 79.079933,192.524811 79.618958,192.532379 
	C82.839706,192.577652 86.270737,192.772736 89.171440,191.688034 
	C90.096260,191.342224 89.618004,187.244232 89.973923,184.198288 
M145.479370,171.710068 
	C145.987534,169.087418 146.896957,166.462112 146.879562,163.842957 
	C146.865112,161.664948 145.761307,159.494156 145.140030,157.320175 
	C144.080322,159.049622 143.020630,160.779068 141.815857,162.745270 
	C140.995392,161.683701 140.204636,160.227310 139.018768,159.250580 
	C137.879547,158.312286 136.142288,157.144531 135.020874,157.435989 
	C134.087982,157.678467 133.386093,159.834076 133.094635,161.247971 
	C132.766037,162.842010 132.763260,164.602066 133.071442,166.202759 
	C133.432053,168.075836 134.281052,169.854874 134.918182,171.674713 
	C135.644485,169.922852 136.362381,168.167389 137.106201,166.423004 
	C137.216782,166.163666 137.449371,165.956360 137.465698,165.934921 
	C139.885071,167.913116 142.292587,169.881592 145.479370,171.710068 
M135.140030,189.751144 
	C136.817993,186.986557 138.092316,188.165237 139.558197,190.053009 
	C140.502869,191.269577 141.830353,192.188889 144.066208,194.224777 
	C143.797958,190.436584 143.117783,188.238327 143.603302,186.337891 
	C145.244080,179.915619 144.007141,177.957642 137.200089,178.132111 
	C135.487335,178.176025 132.595657,179.422180 132.351990,180.564911 
	C131.673401,183.747452 132.008636,187.170258 132.168442,190.487335 
	C132.200806,191.159012 133.220535,191.783127 133.785065,192.429169 
	C134.190872,191.776352 134.596680,191.123520 135.140030,189.751144 
M34.691345,188.125427 
	C35.699581,189.432571 36.483055,191.096970 37.794552,191.922073 
	C38.678413,192.478134 41.432487,191.901276 41.439827,191.742752 
	C41.644104,187.333130 41.603672,182.912170 41.603672,178.493088 
	C40.966137,178.457886 40.328598,178.422668 39.691063,178.387451 
	C39.313530,180.729919 38.935997,183.072388 38.412735,186.319046 
	C36.525314,183.623444 35.435726,181.514236 33.812416,179.963821 
	C32.891895,179.084641 30.726896,178.407074 29.774654,178.899658 
	C27.982674,179.826630 29.089993,190.529022 31.314169,192.795044 
	C31.753246,190.368332 32.132210,188.273880 32.644611,185.441925 
	C33.533798,186.625900 33.903149,187.117706 34.691345,188.125427 
M178.852707,165.902618 
	C176.533600,164.191589 174.214508,162.480560 171.179977,160.241684 
	C174.111267,160.396881 176.200928,160.507507 178.290588,160.618149 
	C178.414612,159.946640 178.538635,159.275131 178.662659,158.603622 
	C176.405197,158.073059 174.081955,156.949982 171.910172,157.191086 
	C170.021973,157.400711 168.304993,159.152527 166.512344,160.222839 
	C167.857574,162.043503 169.013992,164.059418 170.618927,165.611526 
	C171.579254,166.540253 173.241577,166.743088 174.588348,167.272202 
	C174.433670,167.784683 174.279007,168.297150 174.124329,168.809616 
	C171.614334,168.295837 169.104340,167.782059 166.195190,167.186569 
	C167.782654,171.858429 168.675629,172.242661 173.920670,172.006287 
	C177.462952,171.846634 179.055679,170.148911 178.852707,165.902618 
M29.368868,161.772934 
	C29.248577,161.657654 29.096510,161.560532 29.017311,161.421783 
	C28.944551,161.294327 28.950270,161.122055 28.921406,160.969513 
	C31.080017,160.724854 33.238628,160.480179 35.397240,160.235504 
	C35.489105,159.734970 35.580967,159.234436 35.672832,158.733902 
	C33.846218,158.161377 31.849243,156.830627 30.232855,157.193771 
	C27.798992,157.740631 25.631264,159.472000 23.350397,160.699844 
	C25.081266,162.447998 26.736954,164.281357 28.577448,165.905258 
	C29.392645,166.624527 30.581749,166.920044 31.601118,167.407913 
	C31.436132,167.881561 31.271147,168.355209 31.106161,168.828842 
	C28.597692,168.316299 26.089226,167.803772 23.580757,167.291229 
	C23.318275,167.842422 23.055794,168.393631 22.793312,168.944839 
	C24.210609,169.933899 25.613426,171.714142 27.048342,171.740402 
	C29.694540,171.788818 33.000023,171.580215 34.846344,170.049774 
	C36.915482,168.334641 36.814629,165.159149 33.687748,163.473373 
	C32.530380,162.849411 31.224976,162.500031 29.368868,161.772934 
M115.091957,166.984711 
	C117.281509,171.774170 120.427032,173.227554 124.850945,171.493835 
	C128.248077,170.162506 129.905746,166.073257 128.753418,161.866943 
	C127.658928,157.871750 124.367508,156.048538 119.761490,157.139832 
	C114.843956,158.304947 114.795723,162.193176 115.091957,166.984711 
M50.638599,157.469955 
	C49.500313,157.319138 48.362778,157.045624 47.223614,157.038651 
	C42.202347,157.007950 39.877426,159.569168 40.029213,164.857681 
	C40.171890,169.828781 42.613590,172.469391 47.416687,171.820847 
	C49.477730,171.542572 52.159019,169.971130 53.057915,168.217880 
	C54.841114,164.739792 54.924423,160.851028 50.638599,157.469955 
M70.328423,192.961655 
	C75.137642,191.839020 77.599510,188.600845 76.868034,184.359879 
	C76.237808,180.705917 72.657761,177.831314 69.067780,178.096664 
	C65.065773,178.392471 62.082069,181.529938 62.429031,185.876099 
	C62.754776,189.956467 64.490601,193.274719 70.328423,192.961655 
M117.602234,192.682510 
	C121.509651,188.136566 125.676270,190.950928 130.065231,192.745346 
	C128.929932,188.076920 127.744545,183.958527 125.799896,180.236847 
	C125.283554,179.248657 120.973869,178.954590 120.875511,179.228531 
	C119.318130,183.566040 118.163727,188.048248 117.602234,192.682510 
M162.289078,159.164429 
	C160.913071,157.180573 157.344009,156.047501 154.420364,157.267746 
	C153.313324,157.729797 152.496460,159.539536 152.110382,160.895309 
	C151.714722,162.284729 151.996140,163.870407 152.001846,165.370087 
	C152.028549,172.383774 155.846542,174.278778 163.221756,170.156387 
	C160.548767,169.340668 158.431091,168.694427 155.149170,167.692886 
	C158.126785,166.323288 159.931015,165.493408 162.770920,164.187134 
	C159.748795,163.186554 158.023651,162.615402 156.298523,162.044235 
	C156.304718,161.619904 156.310898,161.195572 156.317093,160.771240 
	C158.116043,160.396622 159.914978,160.022003 162.289078,159.164429 
M95.038315,168.283646 
	C94.635765,166.084579 93.222641,163.383041 94.019516,161.780350 
	C96.441437,156.909348 98.548256,164.057358 102.263756,161.765198 
	C101.199905,160.262833 100.429771,157.926544 99.080589,157.522171 
	C95.989174,156.595551 92.482719,156.031052 90.240952,159.659561 
	C88.296295,162.807144 88.521843,169.070511 91.491364,170.553375 
	C93.768089,171.690308 97.057281,171.264435 99.771858,170.802734 
	C100.697227,170.645370 101.244080,168.262451 101.963882,166.896423 
	C101.525879,166.666718 101.087868,166.436996 100.649857,166.207275 
	C98.991982,167.016953 97.334099,167.826645 95.038315,168.283646 
M76.858200,159.121490 
	C75.395187,156.195358 73.835594,156.248749 73.213882,159.408264 
	C72.708328,161.977463 72.461884,164.918610 73.249405,167.317673 
	C73.857094,169.168915 76.087029,171.408417 77.886131,171.703308 
	C79.910927,172.035187 83.907211,170.731827 84.166130,169.522980 
	C84.988518,165.683319 84.470406,161.556534 84.470406,157.540741 
	C83.781532,157.533035 83.092651,157.525314 82.403778,157.517609 
	C82.248093,160.197968 82.318146,162.920120 81.833084,165.539474 
	C81.618874,166.696213 80.278656,167.644409 79.449631,168.687286 
	C78.652519,167.608810 77.444557,166.629105 77.155930,165.428421 
	C76.737480,163.687653 76.983437,161.787186 76.858200,159.121490 
M102.859848,180.153671 
	C101.489502,177.251541 99.993835,177.254700 99.214043,180.334702 
	C98.701469,182.359238 98.838745,184.621277 99.060593,186.737595 
	C99.269020,188.725952 99.585625,192.099899 100.527397,192.352127 
	C103.335220,193.104126 106.473557,192.622040 109.482780,192.622040 
	C109.514923,192.115601 109.547066,191.609177 109.579208,191.102737 
	C109.068077,190.789749 108.535698,190.175995 108.049126,190.210388 
	C103.318069,190.544815 102.627831,187.726135 102.982826,183.964218 
	C103.075264,182.984741 102.963417,181.985992 102.859848,180.153671 
M59.005825,161.802826 
	C59.004154,163.121796 58.826141,164.470413 59.041664,165.752884 
	C59.374607,167.734085 59.593060,171.103287 60.536739,171.355881 
	C63.343254,172.107132 66.479858,171.625198 69.487465,171.625198 
	C69.519127,171.100021 69.550781,170.574829 69.582443,170.049652 
	C68.743439,169.713242 67.892220,169.063187 67.067566,169.095291 
	C63.686520,169.226959 62.773170,167.420898 62.996368,164.456070 
	C63.082706,163.309204 63.206688,162.094360 62.928303,161.009308 
	C62.600945,159.733383 61.854996,158.564850 61.290569,157.349747 
	C60.533203,158.538376 59.775837,159.727005 59.005825,161.802826 
M107.593185,157.350555 
	C107.165588,161.727127 106.692665,166.100647 106.398209,170.486160 
	C106.375160,170.829437 107.571075,171.480011 108.252159,171.562897 
	C108.680153,171.614990 109.644806,170.841232 109.619102,170.493393 
	C109.294922,166.107498 108.834152,161.731720 107.593185,157.350555 
M93.818893,192.303146 
	C94.774582,192.036530 96.545349,191.813141 96.562134,191.496750 
	C96.770721,187.564026 96.783493,183.615997 96.664185,179.677414 
	C96.650208,179.215942 95.138535,178.314743 95.015724,178.420914 
	C94.258652,179.075317 93.191460,179.944046 93.164986,180.771515 
	C93.049438,184.383026 93.255409,188.004852 93.818893,192.303146 
M111.006454,182.796326 
	C111.018761,185.098557 110.843307,187.424286 111.127228,189.692520 
	C111.257706,190.734787 112.289276,191.664246 112.912224,192.644867 
	C113.591423,191.722641 114.749222,190.852798 114.857025,189.868011 
	C115.141777,187.266937 115.149734,184.599274 114.904808,181.992218 
	C114.787148,180.739777 113.849564,179.564377 113.283302,178.354080 
	C112.528542,179.539642 111.773781,180.725204 111.006454,182.796326 
M149.405807,192.648422 
	C149.827820,188.278564 150.296158,183.911743 150.583557,179.533051 
	C150.606445,179.184296 149.406921,178.533508 148.719894,178.442444 
	C148.302567,178.387131 147.342255,179.170258 147.368561,179.521057 
	C147.696915,183.901962 148.161362,188.272705 149.405807,192.648422 
M23.006191,182.835724 
	C23.138704,186.057602 23.271219,189.279465 23.403732,192.501343 
	C23.996527,192.465805 24.589319,192.430267 25.182114,192.394730 
	C25.182114,187.794266 25.182114,183.193787 25.182114,178.593323 
	C24.723825,178.554184 24.265535,178.515045 23.807247,178.475906 
	C23.543703,179.639175 23.280159,180.802460 23.006191,182.835724 
z"/>
<path fill="#0A3C58" opacity="1.000000" stroke="none" 
	d="
M101.919235,12.781207 
	C107.304214,15.567619 112.689186,18.354031 118.551178,21.387266 
	C118.845352,18.665775 119.086258,16.437010 119.327957,14.200972 
	C126.058594,15.409451 127.950623,17.280327 127.932961,23.410702 
	C127.924011,26.516296 128.948700,28.462873 131.879349,29.449015 
	C142.010223,32.857964 145.208527,39.749809 144.150223,50.322987 
	C143.111618,60.699051 143.845535,71.260780 143.963898,81.739189 
	C143.997696,84.732513 143.053177,86.446198 140.281097,87.980080 
	C127.525497,95.038155 114.944771,102.412270 101.979309,109.299545 
	C101.514946,98.339066 101.350655,87.752296 101.236038,77.164993 
	C101.105293,65.087296 101.018814,53.009129 101.152901,40.787292 
	C102.563629,41.531269 103.666603,42.531155 104.916313,43.289070 
	C114.168961,48.900558 119.197830,56.483242 117.077721,67.819756 
	C116.537041,70.710838 116.996620,73.788986 116.996620,76.781189 
	C116.996620,80.162529 116.996620,83.543869 116.996620,88.064484 
	C121.795151,85.436462 125.319122,83.347374 128.985733,81.549141 
	C131.877609,80.130882 133.093613,78.105484 133.040970,74.858383 
	C132.900879,66.216560 132.690170,57.555546 133.121017,48.932816 
	C133.361084,44.127899 131.284790,41.767303 127.412529,39.655361 
	C118.694298,34.900406 110.172195,29.785818 101.607391,24.368492 
	C101.736076,20.206669 101.827652,16.493938 101.919235,12.781207 
z"/>
<path fill="#6FB74B" opacity="1.000000" stroke="none" 
	d="
M101.686226,12.562725 
	C101.827652,16.493938 101.736076,20.206669 101.266434,24.421886 
	C91.136658,30.517185 81.331375,36.020775 71.695442,41.806408 
	C70.367668,42.603630 69.157867,44.782242 69.120552,46.350513 
	C68.887367,56.151924 68.953079,65.962173 69.060516,75.767952 
	C69.075386,77.125443 69.450127,79.132721 70.370262,79.716003 
	C74.914467,82.596619 79.698242,85.099312 84.999802,88.073143 
	C84.999802,76.900414 84.978279,66.931526 85.026993,56.962982 
	C85.033089,55.714863 84.954407,53.938244 85.688904,53.307034 
	C90.647072,49.046101 95.813835,45.027912 100.913094,40.931164 
	C101.018814,53.009129 101.105293,65.087296 101.236038,77.164993 
	C101.350655,87.752296 101.514946,98.339066 101.627243,109.370766 
	C95.993408,106.971214 90.304878,104.280540 84.806084,101.246040 
	C76.944168,96.907440 69.271851,92.225182 61.408501,87.889290 
	C58.965397,86.542137 57.902519,85.079041 57.939102,82.145699 
	C58.113304,68.177414 57.931686,54.204590 58.124718,40.236809 
	C58.148930,38.485096 59.164043,35.944748 60.528683,35.138493 
	C73.602585,27.414177 86.848122,19.980200 100.060600,12.491479 
	C100.432991,12.280411 100.984978,12.386204 101.686226,12.562725 
z"/>
<path fill="#093B59" opacity="1.000000" stroke="none" 
	d="
M106.701080,118.009735 
	C109.605888,118.453979 112.146706,118.606087 114.471916,119.394241 
	C119.566345,121.121025 122.141388,128.675949 118.362358,132.631714 
	C114.893028,136.263306 115.796280,139.216812 117.419815,142.772339 
	C118.168015,144.410889 118.867615,146.071625 120.219368,149.163651 
	C115.639999,148.752686 111.246773,149.580383 108.709503,147.785065 
	C106.200882,146.010025 105.566795,141.585739 104.110420,138.323563 
	C103.610138,138.330368 103.109863,138.337173 102.609589,138.343979 
	C102.398582,140.576111 101.942268,142.817886 102.029732,145.038269 
	C102.191391,149.142334 99.535088,148.959946 96.736732,149.017319 
	C93.872826,149.076019 91.911667,148.578613 91.978966,145.002167 
	C92.123169,137.339355 92.097115,129.670929 91.987679,122.006981 
	C91.943466,118.910294 93.365898,117.899979 96.241623,117.994400 
	C99.570724,118.103691 102.906441,118.011047 106.701080,118.009735 
M104.632507,129.919540 
	C105.951317,129.273422 107.270119,128.627304 108.588921,127.981186 
	C108.161064,127.394821 107.740318,126.316895 107.304070,126.310577 
	C105.746223,126.288040 104.183121,126.629303 102.622002,126.832901 
	C103.036789,127.832130 103.451584,128.831360 104.632507,129.919540 
z"/>
<path fill="#093B59" opacity="1.000000" stroke="none" 
	d="
M84.902802,133.083679 
	C84.239944,136.386566 84.021889,139.488815 82.787506,142.112991 
	C80.073189,147.883377 74.294525,150.822983 68.025475,149.891617 
	C61.764099,148.961349 57.391018,145.701340 55.626518,139.271042 
	C53.529919,131.630447 56.474995,122.499893 62.265163,119.457436 
	C68.336411,116.267296 77.297852,117.628532 81.324417,123.101120 
	C83.263428,125.736458 83.745033,129.444122 84.902802,133.083679 
M71.173813,126.334518 
	C66.411743,126.920486 64.084045,132.926529 66.562828,138.779602 
	C67.066605,139.969147 68.758797,141.725586 69.445236,141.538712 
	C70.762871,141.180008 72.257950,139.819901 72.783783,138.514450 
	C74.388298,134.531036 74.256645,130.491180 71.173813,126.334518 
z"/>
<path fill="#093B59" opacity="1.000000" stroke="none" 
	d="
M161.510773,118.086670 
	C169.808395,117.950111 169.824158,117.945030 172.223831,125.387634 
	C174.155701,131.379364 176.207825,137.341125 177.840714,143.414566 
	C178.274597,145.028381 177.423233,148.555222 177.056732,148.569885 
	C174.004623,148.691833 170.503708,150.535034 168.070221,146.725235 
	C167.098907,145.204575 165.250595,143.317780 163.777908,143.297318 
	C162.223328,143.275757 159.959137,144.940643 159.198425,146.464554 
	C156.946548,150.975632 153.647202,148.326736 149.820190,148.604950 
	C152.552597,139.874008 155.007050,131.680771 157.731339,123.578247 
	C158.394180,121.606773 159.944214,119.933586 161.510773,118.086670 
z"/>
<path fill="#093B59" opacity="1.000000" stroke="none" 
	d="
M33.773811,138.830170 
	C33.315971,140.624771 32.880833,142.133820 33.051926,143.570663 
	C33.599148,148.166245 31.392313,149.320770 27.234556,149.058929 
	C24.407244,148.880890 22.944712,148.126007 22.988728,145.031158 
	C23.099684,137.229630 22.925188,129.422409 23.153250,121.625893 
	C23.188150,120.432884 24.757942,118.275688 25.611822,118.278679 
	C31.371250,118.298897 37.246246,118.185822 42.852848,119.289391 
	C47.971752,120.296951 50.013992,124.816116 48.870842,130.724197 
	C48.017250,135.135773 44.816456,137.358002 40.481068,137.938232 
	C38.357838,138.222382 36.210464,138.326172 33.773811,138.830170 
M33.196918,129.243378 
	C35.567322,132.438019 37.111839,130.483307 39.522015,127.825172 
	C36.771282,127.164734 34.851887,123.381432 33.196918,129.243378 
z"/>
<path fill="#093B59" opacity="1.000000" stroke="none" 
	d="
M147.844742,120.255783 
	C148.164291,123.523872 148.124207,125.960426 144.191727,126.312088 
	C143.361176,126.386360 142.179504,128.693024 142.109879,130.020905 
	C141.848801,134.999664 141.844940,140.003555 142.009399,144.989304 
	C142.142639,149.028275 139.616760,148.989319 136.770706,149.020813 
	C133.947174,149.052032 131.867050,148.652222 131.983383,145.048798 
	C132.133667,140.395065 131.922745,135.730576 132.020660,131.073914 
	C132.083420,128.089767 131.717545,125.971558 127.893509,125.734924 
	C126.881783,125.672333 125.491798,123.125786 125.289001,121.586288 
	C125.152000,120.546272 126.748779,118.297852 127.640587,118.260178 
	C133.778610,118.000916 139.936264,118.139267 146.084106,118.290802 
	C146.661407,118.305031 147.214645,119.295097 147.844742,120.255783 
z"/>
<path fill="#083B59" opacity="1.000000" stroke="none" 
	d="
M157.398651,190.166016 
	C155.748642,191.085678 154.465118,191.949112 153.181580,192.812531 
	C152.714722,192.569717 152.247849,192.326904 151.780991,192.084091 
	C153.417542,187.775589 154.625214,183.226120 156.857819,179.252518 
	C158.118271,177.009140 160.690506,177.701523 161.848480,180.304306 
	C163.120407,183.163239 164.248428,186.086197 165.264435,188.556488 
	C168.482483,188.987427 171.259659,189.359329 174.036850,189.731232 
	C174.121765,189.379486 174.206680,189.027756 174.291595,188.676025 
	C172.563126,187.907928 170.418777,187.530792 169.224564,186.260437 
	C168.058365,185.019897 166.990723,182.550430 167.480820,181.202637 
	C167.990219,179.801804 170.368332,178.390503 172.018631,178.276367 
	C173.907379,178.145737 175.907074,179.407852 177.809875,180.184174 
	C177.932251,180.234100 177.839478,181.594498 177.490067,181.842285 
	C176.901733,182.259506 175.977600,182.530807 175.284119,182.397690 
	C174.162567,182.182373 173.113480,181.589600 172.033783,181.156204 
	C171.849869,181.570343 171.665970,181.984467 171.482056,182.398605 
	C172.991074,183.119263 174.771774,183.549500 175.936096,184.638641 
	C177.213745,185.833817 178.823593,187.763168 178.629898,189.139114 
	C178.431717,190.546982 176.139679,192.810730 174.909393,192.720474 
	C169.981583,192.358917 164.597305,194.284851 160.182144,190.387787 
	C159.683319,189.947479 158.585297,190.186020 157.398651,190.166016 
z"/>
<path fill="#093B59" opacity="1.000000" stroke="none" 
	d="
M50.223763,180.401855 
	C51.031212,182.000763 51.695549,183.264389 52.358231,184.524872 
	C54.923954,182.541718 54.144581,176.550766 58.780605,178.535736 
	C60.435066,179.244141 60.665161,184.082565 60.866673,187.081467 
	C60.988674,188.897079 59.808640,190.800171 59.213581,192.663971 
	C58.133324,190.785278 57.053070,188.906570 55.912380,186.922775 
	C55.083748,188.616241 54.062767,190.702805 52.557785,193.778519 
	C50.879753,191.339249 49.685665,189.603455 48.264076,187.536957 
	C48.097710,188.928711 48.129581,190.079224 47.776882,191.096375 
	C47.555115,191.735931 46.606319,192.699982 46.247837,192.597183 
	C45.467522,192.373444 44.298809,191.589157 44.267319,190.983139 
	C44.078346,187.346878 43.391720,183.467651 44.380672,180.114899 
	C45.363411,176.783173 48.116131,177.006866 50.223763,180.401855 
z"/>
<path fill="#083B59" opacity="1.000000" stroke="none" 
	d="
M89.877838,184.530701 
	C89.618004,187.244232 90.096260,191.342224 89.171440,191.688034 
	C86.270737,192.772736 82.839706,192.577652 79.618958,192.532379 
	C79.079933,192.524811 78.212303,190.829529 78.109947,189.849991 
	C77.870033,187.553986 78.024216,185.218658 77.977486,182.900085 
	C77.924210,180.257233 77.965546,177.861984 81.726257,177.988556 
	C85.411201,178.112610 89.145012,177.906189 90.591080,182.348221 
	C90.752892,182.845261 90.196991,183.575958 89.877838,184.530701 
z"/>
<path fill="#093B59" opacity="1.000000" stroke="none" 
	d="
M145.089722,171.780075 
	C142.292587,169.881592 139.885071,167.913116 137.465698,165.934921 
	C137.449371,165.956360 137.216782,166.163666 137.106201,166.423004 
	C136.362381,168.167389 135.644485,169.922852 134.918182,171.674713 
	C134.281052,169.854874 133.432053,168.075836 133.071442,166.202759 
	C132.763260,164.602066 132.766037,162.842010 133.094635,161.247971 
	C133.386093,159.834076 134.087982,157.678467 135.020874,157.435989 
	C136.142288,157.144531 137.879547,158.312286 139.018768,159.250580 
	C140.204636,160.227310 140.995392,161.683701 141.815857,162.745270 
	C143.020630,160.779068 144.080322,159.049622 145.140030,157.320175 
	C145.761307,159.494156 146.865112,161.664948 146.879562,163.842957 
	C146.896957,166.462112 145.987534,169.087418 145.089722,171.780075 
z"/>
<path fill="#083B59" opacity="1.000000" stroke="none" 
	d="
M135.071259,190.110931 
	C134.596680,191.123520 134.190872,191.776352 133.785065,192.429169 
	C133.220535,191.783127 132.200806,191.159012 132.168442,190.487335 
	C132.008636,187.170258 131.673401,183.747452 132.351990,180.564911 
	C132.595657,179.422180 135.487335,178.176025 137.200089,178.132111 
	C144.007141,177.957642 145.244080,179.915619 143.603302,186.337891 
	C143.117783,188.238327 143.797958,190.436584 144.066208,194.224777 
	C141.830353,192.188889 140.502869,191.269577 139.558197,190.053009 
	C138.092316,188.165237 136.817993,186.986557 135.071259,190.110931 
z"/>
<path fill="#093B59" opacity="1.000000" stroke="none" 
	d="
M34.481922,187.867462 
	C33.903149,187.117706 33.533798,186.625900 32.644611,185.441925 
	C32.132210,188.273880 31.753246,190.368332 31.314169,192.795044 
	C29.089993,190.529022 27.982674,179.826630 29.774654,178.899658 
	C30.726896,178.407074 32.891895,179.084641 33.812416,179.963821 
	C35.435726,181.514236 36.525314,183.623444 38.412735,186.319046 
	C38.935997,183.072388 39.313530,180.729919 39.691063,178.387451 
	C40.328598,178.422668 40.966137,178.457886 41.603672,178.493088 
	C41.603672,182.912170 41.644104,187.333130 41.439827,191.742752 
	C41.432487,191.901276 38.678413,192.478134 37.794552,191.922073 
	C36.483055,191.096970 35.699581,189.432571 34.481922,187.867462 
z"/>
<path fill="#083B59" opacity="1.000000" stroke="none" 
	d="
M178.889557,166.292969 
	C179.055679,170.148911 177.462952,171.846634 173.920670,172.006287 
	C168.675629,172.242661 167.782654,171.858429 166.195190,167.186569 
	C169.104340,167.782059 171.614334,168.295837 174.124329,168.809616 
	C174.279007,168.297150 174.433670,167.784683 174.588348,167.272202 
	C173.241577,166.743088 171.579254,166.540253 170.618927,165.611526 
	C169.013992,164.059418 167.857574,162.043503 166.512344,160.222839 
	C168.304993,159.152527 170.021973,157.400711 171.910172,157.191086 
	C174.081955,156.949982 176.405197,158.073059 178.662659,158.603622 
	C178.538635,159.275131 178.414612,159.946640 178.290588,160.618149 
	C176.200928,160.507507 174.111267,160.396881 171.179977,160.241684 
	C174.214508,162.480560 176.533600,164.191589 178.889557,166.292969 
z"/>
<path fill="#083B59" opacity="1.000000" stroke="none" 
	d="
M29.677979,161.899170 
	C31.224976,162.500031 32.530380,162.849411 33.687748,163.473373 
	C36.814629,165.159149 36.915482,168.334641 34.846344,170.049774 
	C33.000023,171.580215 29.694540,171.788818 27.048342,171.740402 
	C25.613426,171.714142 24.210609,169.933899 22.793312,168.944839 
	C23.055794,168.393631 23.318275,167.842422 23.580757,167.291229 
	C26.089226,167.803772 28.597692,168.316299 31.106161,168.828842 
	C31.271147,168.355209 31.436132,167.881561 31.601118,167.407913 
	C30.581749,166.920044 29.392645,166.624527 28.577448,165.905258 
	C26.736954,164.281357 25.081266,162.447998 23.350399,160.699844 
	C25.631264,159.472000 27.798992,157.740631 30.232855,157.193771 
	C31.849243,156.830627 33.846218,158.161377 35.672832,158.733902 
	C35.580967,159.234436 35.489105,159.734970 35.397240,160.235504 
	C33.238628,160.480179 31.080017,160.724854 28.921406,160.969513 
	C28.950270,161.122055 28.944551,161.294327 29.017311,161.421783 
	C29.096510,161.560532 29.248577,161.657654 29.677979,161.899170 
z"/>
<path fill="#083B59" opacity="1.000000" stroke="none" 
	d="
M115.064438,166.568970 
	C114.795723,162.193176 114.843956,158.304947 119.761490,157.139832 
	C124.367508,156.048538 127.658928,157.871750 128.753418,161.866943 
	C129.905746,166.073257 128.248077,170.162506 124.850945,171.493835 
	C120.427032,173.227554 117.281509,171.774170 115.064438,166.568970 
M124.491455,166.694901 
	C124.633957,165.896927 125.131943,164.929810 124.848663,164.334427 
	C124.151764,162.869736 123.205757,161.468384 122.079620,160.315292 
	C121.882965,160.113922 119.586853,161.169250 119.522446,161.777756 
	C119.309258,163.791992 119.673340,165.867310 119.815926,167.919205 
	C121.214539,167.712692 122.613152,167.506195 124.491455,166.694901 
z"/>
<path fill="#083B59" opacity="1.000000" stroke="none" 
	d="
M50.968864,157.714172 
	C54.924423,160.851028 54.841114,164.739792 53.057915,168.217880 
	C52.159019,169.971130 49.477730,171.542572 47.416687,171.820847 
	C42.613590,172.469391 40.171890,169.828781 40.029213,164.857681 
	C39.877426,159.569168 42.202347,157.007950 47.223614,157.038651 
	C48.362778,157.045624 49.500313,157.319138 50.968864,157.714172 
M47.466839,168.791290 
	C51.468769,167.173080 50.054596,164.029266 49.228569,161.383530 
	C49.040833,160.782196 46.752872,160.836548 45.431602,160.589111 
	C45.421124,163.102692 45.377373,165.617325 45.456230,168.128113 
	C45.463409,168.356689 46.257523,168.560562 47.466839,168.791290 
z"/>
<path fill="#083B59" opacity="1.000000" stroke="none" 
	d="
M69.922012,192.967834 
	C64.490601,193.274719 62.754776,189.956467 62.429031,185.876099 
	C62.082069,181.529938 65.065773,178.392471 69.067780,178.096664 
	C72.657761,177.831314 76.237808,180.705917 76.868034,184.359879 
	C77.599510,188.600845 75.137642,191.839020 69.922012,192.967834 
M67.030388,186.337799 
	C68.103195,187.488068 69.175995,188.638351 70.248802,189.788620 
	C71.118660,188.373184 72.847534,186.815384 72.642487,185.578094 
	C72.382019,184.006424 70.553139,182.694672 69.400520,181.270859 
	C68.612877,182.691040 67.825226,184.111221 67.030388,186.337799 
z"/>
<path fill="#083B59" opacity="1.000000" stroke="none" 
	d="
M117.259644,192.589905 
	C118.163727,188.048248 119.318130,183.566040 120.875511,179.228531 
	C120.973869,178.954590 125.283554,179.248657 125.799896,180.236847 
	C127.744545,183.958527 128.929932,188.076920 130.065231,192.745346 
	C125.676270,190.950928 121.509651,188.136566 117.259644,192.589905 
z"/>
<path fill="#093B59" opacity="1.000000" stroke="none" 
	d="
M162.001495,159.405914 
	C159.914978,160.022003 158.116043,160.396622 156.317093,160.771240 
	C156.310898,161.195572 156.304718,161.619904 156.298523,162.044235 
	C158.023651,162.615402 159.748795,163.186554 162.770920,164.187134 
	C159.931015,165.493408 158.126785,166.323288 155.149170,167.692886 
	C158.431091,168.694427 160.548767,169.340668 163.221756,170.156387 
	C155.846542,174.278778 152.028549,172.383774 152.001846,165.370087 
	C151.996140,163.870407 151.714722,162.284729 152.110382,160.895309 
	C152.496460,159.539536 153.313324,157.729797 154.420364,157.267746 
	C157.344009,156.047501 160.913071,157.180573 162.001495,159.405914 
z"/>
<path fill="#083B59" opacity="1.000000" stroke="none" 
	d="
M95.357269,168.459991 
	C97.334099,167.826645 98.991982,167.016953 100.649857,166.207275 
	C101.087868,166.436996 101.525879,166.666718 101.963882,166.896423 
	C101.244080,168.262451 100.697227,170.645370 99.771858,170.802734 
	C97.057281,171.264435 93.768089,171.690308 91.491364,170.553375 
	C88.521843,169.070511 88.296295,162.807144 90.240952,159.659561 
	C92.482719,156.031052 95.989174,156.595551 99.080589,157.522171 
	C100.429771,157.926544 101.199905,160.262833 102.263756,161.765198 
	C98.548256,164.057358 96.441437,156.909348 94.019516,161.780350 
	C93.222641,163.383041 94.635765,166.084579 95.357269,168.459991 
z"/>
<path fill="#083B59" opacity="1.000000" stroke="none" 
	d="
M76.902100,159.538162 
	C76.983437,161.787186 76.737480,163.687653 77.155930,165.428421 
	C77.444557,166.629105 78.652519,167.608810 79.449631,168.687286 
	C80.278656,167.644409 81.618874,166.696213 81.833084,165.539474 
	C82.318146,162.920120 82.248093,160.197968 82.403778,157.517609 
	C83.092651,157.525314 83.781532,157.533035 84.470406,157.540741 
	C84.470406,161.556534 84.988518,165.683319 84.166130,169.522980 
	C83.907211,170.731827 79.910927,172.035187 77.886131,171.703308 
	C76.087029,171.408417 73.857094,169.168915 73.249405,167.317673 
	C72.461884,164.918610 72.708328,161.977463 73.213882,159.408264 
	C73.835594,156.248749 75.395187,156.195358 76.902100,159.538162 
z"/>
<path fill="#093B59" opacity="1.000000" stroke="none" 
	d="
M102.902618,180.574890 
	C102.963417,181.985992 103.075264,182.984741 102.982826,183.964218 
	C102.627831,187.726135 103.318069,190.544815 108.049126,190.210388 
	C108.535698,190.175995 109.068077,190.789749 109.579208,191.102737 
	C109.547066,191.609177 109.514923,192.115601 109.482780,192.622040 
	C106.473557,192.622040 103.335220,193.104126 100.527397,192.352127 
	C99.585625,192.099899 99.269020,188.725952 99.060593,186.737595 
	C98.838745,184.621277 98.701469,182.359238 99.214043,180.334702 
	C99.993835,177.254700 101.489502,177.251541 102.902618,180.574890 
z"/>
<path fill="#093B59" opacity="1.000000" stroke="none" 
	d="
M59.012146,161.359222 
	C59.775837,159.727005 60.533203,158.538376 61.290565,157.349747 
	C61.854996,158.564850 62.600945,159.733383 62.928303,161.009308 
	C63.206688,162.094360 63.082706,163.309204 62.996368,164.456070 
	C62.773170,167.420898 63.686520,169.226959 67.067566,169.095291 
	C67.892220,169.063187 68.743439,169.713242 69.582443,170.049652 
	C69.550781,170.574829 69.519127,171.100021 69.487465,171.625198 
	C66.479858,171.625198 63.343254,172.107132 60.536739,171.355881 
	C59.593060,171.103287 59.374607,167.734085 59.041664,165.752884 
	C58.826141,164.470413 59.004154,163.121796 59.012146,161.359222 
z"/>
<path fill="#093B59" opacity="1.000000" stroke="none" 
	d="
M108.000732,157.351959 
	C108.834152,161.731720 109.294922,166.107498 109.619102,170.493393 
	C109.644806,170.841232 108.680153,171.614990 108.252159,171.562897 
	C107.571075,171.480011 106.375160,170.829437 106.398209,170.486160 
	C106.692665,166.100647 107.165588,161.727127 108.000732,157.351959 
z"/>
<path fill="#093B59" opacity="1.000000" stroke="none" 
	d="
M93.581772,191.963043 
	C93.255409,188.004852 93.049438,184.383026 93.164986,180.771515 
	C93.191460,179.944046 94.258652,179.075317 95.015724,178.420914 
	C95.138535,178.314743 96.650208,179.215942 96.664185,179.677414 
	C96.783493,183.615997 96.770721,187.564026 96.562134,191.496750 
	C96.545349,191.813141 94.774582,192.036530 93.581772,191.963043 
z"/>
<path fill="#093B59" opacity="1.000000" stroke="none" 
	d="
M111.012741,182.353546 
	C111.773781,180.725204 112.528542,179.539642 113.283295,178.354080 
	C113.849564,179.564377 114.787148,180.739777 114.904808,181.992218 
	C115.149734,184.599274 115.141777,187.266937 114.857025,189.868011 
	C114.749222,190.852798 113.591423,191.722641 112.912224,192.644867 
	C112.289276,191.664246 111.257706,190.734787 111.127228,189.692520 
	C110.843307,187.424286 111.018761,185.098557 111.012741,182.353546 
z"/>
<path fill="#083B59" opacity="1.000000" stroke="none" 
	d="
M148.998352,192.647232 
	C148.161362,188.272705 147.696915,183.901962 147.368561,179.521057 
	C147.342255,179.170258 148.302567,178.387131 148.719894,178.442444 
	C149.406921,178.533508 150.606445,179.184296 150.583557,179.533051 
	C150.296158,183.911743 149.827820,188.278564 148.998352,192.647232 
z"/>
<path fill="#093B59" opacity="1.000000" stroke="none" 
	d="
M23.011404,182.400726 
	C23.280159,180.802460 23.543703,179.639175 23.807247,178.475906 
	C24.265535,178.515045 24.723825,178.554184 25.182114,178.593323 
	C25.182114,183.193787 25.182114,187.794266 25.182114,192.394730 
	C24.589319,192.430267 23.996527,192.465805 23.403732,192.501343 
	C23.271219,189.279465 23.138704,186.057602 23.011404,182.400726 
z"/>
<path fill="#000000" opacity="1.000000" stroke="none" 
	d="
M101.152901,40.787292 
	C95.813835,45.027912 90.647072,49.046101 85.688904,53.307034 
	C84.954407,53.938244 85.033089,55.714863 85.026993,56.962982 
	C84.978279,66.931526 84.999802,76.900414 84.999802,88.073143 
	C79.698242,85.099312 74.914467,82.596619 70.370262,79.716003 
	C69.450127,79.132721 69.075386,77.125443 69.060516,75.767952 
	C68.953079,65.962173 68.887367,56.151924 69.120552,46.350513 
	C69.157867,44.782242 70.367668,42.603630 71.695442,41.806408 
	C81.331375,36.020775 91.136658,30.517185 101.229324,24.870979 
	C110.172195,29.785818 118.694298,34.900406 127.412529,39.655361 
	C131.284790,41.767303 133.361084,44.127899 133.121017,48.932816 
	C132.690170,57.555546 132.900879,66.216560 133.040970,74.858383 
	C133.093613,78.105484 131.877609,80.130882 128.985733,81.549141 
	C125.319122,83.347374 121.795151,85.436462 116.996620,88.064484 
	C116.996620,83.543869 116.996620,80.162529 116.996620,76.781189 
	C116.996620,73.788986 116.537041,70.710838 117.077721,67.819756 
	C119.197830,56.483242 114.168961,48.900558 104.916313,43.289070 
	C103.666603,42.531155 102.563629,41.531269 101.152901,40.787292 
z"/>
<path fill="#000000" opacity="1.000000" stroke="none" 
	d="
M104.249435,129.875061 
	C103.451584,128.831360 103.036789,127.832130 102.622002,126.832901 
	C104.183121,126.629303 105.746223,126.288040 107.304070,126.310577 
	C107.740318,126.316895 108.161064,127.394821 108.588921,127.981186 
	C107.270119,128.627304 105.951317,129.273422 104.249435,129.875061 
z"/>
<path fill="#000000" opacity="1.000000" stroke="none" 
	d="
M71.507256,126.533813 
	C74.256645,130.491180 74.388298,134.531036 72.783783,138.514450 
	C72.257950,139.819901 70.762871,141.180008 69.445236,141.538712 
	C68.758797,141.725586 67.066605,139.969147 66.562828,138.779602 
	C64.084045,132.926529 66.411743,126.920486 71.507256,126.533813 
z"/>
<path fill="#000000" opacity="1.000000" stroke="none" 
	d="
M33.167427,128.870987 
	C34.851887,123.381432 36.771282,127.164734 39.522015,127.825172 
	C37.111839,130.483307 35.567322,132.438019 33.167427,128.870987 
z"/>
<path fill="#000000" opacity="1.000000" stroke="none" 
	d="
M124.251610,166.997299 
	C122.613152,167.506195 121.214539,167.712692 119.815926,167.919189 
	C119.673340,165.867310 119.309258,163.791992 119.522446,161.777756 
	C119.586853,161.169250 121.882965,160.113922 122.079620,160.315292 
	C123.205757,161.468384 124.151764,162.869736 124.848663,164.334427 
	C125.131943,164.929810 124.633957,165.896927 124.251610,166.997299 
z"/>
<path fill="#000000" opacity="1.000000" stroke="none" 
	d="
M47.076523,168.783600 
	C46.257523,168.560562 45.463409,168.356689 45.456230,168.128113 
	C45.377373,165.617325 45.421124,163.102692 45.431602,160.589111 
	C46.752872,160.836548 49.040833,160.782196 49.228569,161.383530 
	C50.054596,164.029266 51.468769,167.173080 47.076523,168.783600 
z"/>
<path fill="#000000" opacity="1.000000" stroke="none" 
	d="
M67.033981,185.934601 
	C67.825226,184.111221 68.612877,182.691040 69.400520,181.270859 
	C70.553139,182.694672 72.382019,184.006424 72.642487,185.578094 
	C72.847534,186.815384 71.118660,188.373184 70.248802,189.788620 
	C69.175995,188.638351 68.103195,187.488068 67.033981,185.934601 
z"/>
</svg>